<mxfile>
    <diagram id="IFcnutCuMSkecNjUkUuo" name="firewall1">
        <mxGraphModel dx="825" dy="620" grid="1" gridSize="10" guides="1" tooltips="1" connect="1" arrows="1" fold="1" page="1" pageScale="1" pageWidth="827" pageHeight="1169" math="0" shadow="0">
            <root>
                <mxCell id="0"/>
                <mxCell id="1" parent="0"/>
                <mxCell id="8" value="&lt;pre&gt;www.website.cute&lt;/pre&gt;" style="rounded=0;whiteSpace=wrap;html=1;strokeWidth=1;fillColor=none;align=center;verticalAlign=top;strokeColor=#004aa0;fontColor=#004AA0;" parent="1" vertex="1">
                    <mxGeometry x="300" y="70" width="160" height="180" as="geometry"/>
                </mxCell>
                <mxCell id="11" value="&lt;pre&gt;web.website.cute&lt;/pre&gt;" style="rounded=0;whiteSpace=wrap;html=1;strokeWidth=1;fillColor=none;align=center;verticalAlign=top;strokeColor=#004aa0;fontColor=#004AA0;glass=0;sketch=0;" parent="1" vertex="1">
                    <mxGeometry x="500" y="70" width="160" height="180" as="geometry"/>
                </mxCell>
                <mxCell id="2" value="Firewall 1" style="rounded=0;whiteSpace=wrap;html=1;strokeWidth=2;strokeColor=#004aa0;fontColor=#004AA0;fontFamily=Gill Sans;" parent="1" vertex="1">
                    <mxGeometry x="320" y="120" width="120" height="40" as="geometry"/>
                </mxCell>
                <mxCell id="3" value="Firewall 2" style="rounded=0;whiteSpace=wrap;html=1;strokeWidth=2;strokeColor=#004aa0;fontColor=#004AA0;fontFamily=Gill Sans;" parent="1" vertex="1">
                    <mxGeometry x="320" y="200" width="120" height="40" as="geometry"/>
                </mxCell>
                <mxCell id="4" value="Application server 1" style="rounded=0;whiteSpace=wrap;html=1;strokeWidth=2;strokeColor=#004AA0;fontColor=#004AA0;fontFamily=Gill Sans;" parent="1" vertex="1">
                    <mxGeometry x="520" y="120" width="120" height="40" as="geometry"/>
                </mxCell>
                <mxCell id="5" value="Application server 2" style="rounded=0;whiteSpace=wrap;html=1;strokeWidth=2;strokeColor=#004AA0;fontColor=#004AA0;fontFamily=Gill Sans;" parent="1" vertex="1">
                    <mxGeometry x="520" y="200" width="120" height="40" as="geometry"/>
                </mxCell>
                <mxCell id="7" value="" style="pointerEvents=1;shadow=0;dashed=0;html=1;aspect=fixed;labelPosition=center;verticalLabelPosition=bottom;verticalAlign=top;align=center;outlineConnect=0;shape=mxgraph.vvd.web_browser;strokeColor=#004AA0;fontColor=#004AA0;fillColor=#004AA0;" parent="1" vertex="1">
                    <mxGeometry x="150" y="150" width="84.51" height="60" as="geometry"/>
                </mxCell>
                <mxCell id="12" value="" style="endArrow=blockThin;html=1;entryX=0;entryY=0.5;entryDx=0;entryDy=0;rounded=0;endFill=1;strokeColor=#004AA0;" parent="1" source="7" target="2" edge="1">
                    <mxGeometry width="50" height="50" relative="1" as="geometry">
                        <mxPoint x="60" y="420" as="sourcePoint"/>
                        <mxPoint x="180" y="270" as="targetPoint"/>
                    </mxGeometry>
                </mxCell>
                <mxCell id="13" value="" style="endArrow=blockThin;html=1;entryX=0;entryY=0.5;entryDx=0;entryDy=0;rounded=0;endFill=1;strokeColor=#004AA0;" parent="1" source="7" target="3" edge="1">
                    <mxGeometry width="50" height="50" relative="1" as="geometry">
                        <mxPoint x="174.51" y="181.4526283850413" as="sourcePoint"/>
                        <mxPoint x="330" y="150" as="targetPoint"/>
                    </mxGeometry>
                </mxCell>
                <mxCell id="14" value="" style="endArrow=blockThin;html=1;entryX=0;entryY=0.5;entryDx=0;entryDy=0;rounded=0;endFill=1;strokeColor=#004AA0;" parent="1" source="2" target="4" edge="1">
                    <mxGeometry width="50" height="50" relative="1" as="geometry">
                        <mxPoint x="174.51" y="198.5473716149587" as="sourcePoint"/>
                        <mxPoint x="330" y="230" as="targetPoint"/>
                    </mxGeometry>
                </mxCell>
                <mxCell id="15" value="" style="endArrow=blockThin;html=1;entryX=0;entryY=0.5;entryDx=0;entryDy=0;exitX=1;exitY=0.5;exitDx=0;exitDy=0;rounded=0;endFill=1;strokeColor=#004AA0;" parent="1" source="3" target="5" edge="1">
                    <mxGeometry width="50" height="50" relative="1" as="geometry">
                        <mxPoint x="450" y="150" as="sourcePoint"/>
                        <mxPoint x="530" y="150" as="targetPoint"/>
                    </mxGeometry>
                </mxCell>
                <mxCell id="16" value="" style="endArrow=blockThin;html=1;entryX=0;entryY=0.5;entryDx=0;entryDy=0;exitX=1;exitY=0.5;exitDx=0;exitDy=0;rounded=0;endFill=1;strokeColor=#004AA0;" parent="1" source="3" target="4" edge="1">
                    <mxGeometry width="50" height="50" relative="1" as="geometry">
                        <mxPoint x="450" y="230" as="sourcePoint"/>
                        <mxPoint x="530" y="230" as="targetPoint"/>
                    </mxGeometry>
                </mxCell>
                <mxCell id="17" value="" style="endArrow=blockThin;html=1;entryX=0;entryY=0.5;entryDx=0;entryDy=0;exitX=1;exitY=0.5;exitDx=0;exitDy=0;rounded=0;endFill=1;strokeColor=#004AA0;" parent="1" source="2" target="5" edge="1">
                    <mxGeometry width="50" height="50" relative="1" as="geometry">
                        <mxPoint x="450" y="230" as="sourcePoint"/>
                        <mxPoint x="530" y="150" as="targetPoint"/>
                    </mxGeometry>
                </mxCell>
                <mxCell id="N3HOGYaTB-KsF7eIuMCR-17" style="edgeStyle=orthogonalEdgeStyle;rounded=0;orthogonalLoop=1;jettySize=auto;html=1;exitX=0.5;exitY=1;exitDx=0;exitDy=0;" edge="1" parent="1" source="11" target="11">
                    <mxGeometry relative="1" as="geometry"/>
                </mxCell>
            </root>
        </mxGraphModel>
    </diagram>
    <diagram id="IxVV-oUCipvnMBo26BJ-" name="firewall2">
        <mxGraphModel dx="701" dy="527" grid="1" gridSize="10" guides="1" tooltips="1" connect="1" arrows="1" fold="1" page="1" pageScale="1" pageWidth="827" pageHeight="1169" math="0" shadow="0">
            <root>
                <mxCell id="syzZmw7OrBITDXNh8qp6-0"/>
                <mxCell id="syzZmw7OrBITDXNh8qp6-1" parent="syzZmw7OrBITDXNh8qp6-0"/>
                <mxCell id="syzZmw7OrBITDXNh8qp6-2" value="&lt;p style=&quot;line-height: 100%&quot;&gt;&lt;/p&gt;&lt;pre style=&quot;line-height: 130%&quot;&gt;www.website.cute&lt;br/&gt;secret.website.cute&lt;/pre&gt;&lt;p&gt;&lt;/p&gt;" style="rounded=0;whiteSpace=wrap;html=1;strokeWidth=1;fillColor=none;align=center;verticalAlign=top;strokeColor=#004aa0;fontColor=#004AA0;" parent="syzZmw7OrBITDXNh8qp6-1" vertex="1">
                    <mxGeometry x="300" y="50" width="160" height="200" as="geometry"/>
                </mxCell>
                <mxCell id="syzZmw7OrBITDXNh8qp6-3" value="&lt;pre&gt;web.website.cute&lt;/pre&gt;" style="rounded=0;whiteSpace=wrap;html=1;strokeWidth=1;fillColor=none;align=center;verticalAlign=top;strokeColor=#004aa0;fontColor=#004AA0;glass=0;sketch=0;" parent="syzZmw7OrBITDXNh8qp6-1" vertex="1">
                    <mxGeometry x="500" y="50" width="160" height="200" as="geometry"/>
                </mxCell>
                <mxCell id="syzZmw7OrBITDXNh8qp6-4" value="Firewall 1" style="rounded=0;whiteSpace=wrap;html=1;strokeWidth=2;strokeColor=#004aa0;fontColor=#004AA0;fontFamily=Gill Sans;" parent="syzZmw7OrBITDXNh8qp6-1" vertex="1">
                    <mxGeometry x="320" y="120" width="120" height="40" as="geometry"/>
                </mxCell>
                <mxCell id="syzZmw7OrBITDXNh8qp6-5" value="Firewall 2" style="rounded=0;whiteSpace=wrap;html=1;strokeWidth=2;strokeColor=#004aa0;fontColor=#004AA0;fontFamily=Gill Sans;" parent="syzZmw7OrBITDXNh8qp6-1" vertex="1">
                    <mxGeometry x="320" y="200" width="120" height="40" as="geometry"/>
                </mxCell>
                <mxCell id="syzZmw7OrBITDXNh8qp6-6" value="Application server 1" style="rounded=0;whiteSpace=wrap;html=1;strokeWidth=2;strokeColor=#004AA0;fontColor=#004AA0;fontFamily=Gill Sans;" parent="syzZmw7OrBITDXNh8qp6-1" vertex="1">
                    <mxGeometry x="520" y="120" width="120" height="40" as="geometry"/>
                </mxCell>
                <mxCell id="syzZmw7OrBITDXNh8qp6-7" value="Application server 2" style="rounded=0;whiteSpace=wrap;html=1;strokeWidth=2;strokeColor=#004AA0;fontColor=#004AA0;fontFamily=Gill Sans;" parent="syzZmw7OrBITDXNh8qp6-1" vertex="1">
                    <mxGeometry x="520" y="200" width="120" height="40" as="geometry"/>
                </mxCell>
                <mxCell id="syzZmw7OrBITDXNh8qp6-8" value="" style="pointerEvents=1;shadow=0;dashed=0;html=1;aspect=fixed;labelPosition=center;verticalLabelPosition=bottom;verticalAlign=top;align=center;outlineConnect=0;shape=mxgraph.vvd.web_browser;strokeColor=#004AA0;fontColor=#004AA0;fillColor=#004AA0;" parent="syzZmw7OrBITDXNh8qp6-1" vertex="1">
                    <mxGeometry x="150" y="150" width="84.51" height="60" as="geometry"/>
                </mxCell>
                <mxCell id="syzZmw7OrBITDXNh8qp6-9" value="" style="endArrow=blockThin;html=1;entryX=0;entryY=0.5;entryDx=0;entryDy=0;rounded=0;endFill=1;strokeColor=#004AA0;" parent="syzZmw7OrBITDXNh8qp6-1" source="syzZmw7OrBITDXNh8qp6-8" target="syzZmw7OrBITDXNh8qp6-4" edge="1">
                    <mxGeometry width="50" height="50" relative="1" as="geometry">
                        <mxPoint x="60" y="420" as="sourcePoint"/>
                        <mxPoint x="180" y="270" as="targetPoint"/>
                    </mxGeometry>
                </mxCell>
                <mxCell id="syzZmw7OrBITDXNh8qp6-10" value="" style="endArrow=blockThin;html=1;entryX=0;entryY=0.5;entryDx=0;entryDy=0;rounded=0;endFill=1;strokeColor=#004AA0;" parent="syzZmw7OrBITDXNh8qp6-1" source="syzZmw7OrBITDXNh8qp6-8" target="syzZmw7OrBITDXNh8qp6-5" edge="1">
                    <mxGeometry width="50" height="50" relative="1" as="geometry">
                        <mxPoint x="174.51" y="181.4526283850413" as="sourcePoint"/>
                        <mxPoint x="330" y="150" as="targetPoint"/>
                    </mxGeometry>
                </mxCell>
                <mxCell id="syzZmw7OrBITDXNh8qp6-11" value="" style="endArrow=blockThin;html=1;entryX=0;entryY=0.5;entryDx=0;entryDy=0;rounded=0;endFill=1;strokeColor=#004AA0;" parent="syzZmw7OrBITDXNh8qp6-1" source="syzZmw7OrBITDXNh8qp6-4" target="syzZmw7OrBITDXNh8qp6-6" edge="1">
                    <mxGeometry width="50" height="50" relative="1" as="geometry">
                        <mxPoint x="174.51" y="198.5473716149587" as="sourcePoint"/>
                        <mxPoint x="330" y="230" as="targetPoint"/>
                    </mxGeometry>
                </mxCell>
                <mxCell id="syzZmw7OrBITDXNh8qp6-12" value="" style="endArrow=blockThin;html=1;entryX=0;entryY=0.5;entryDx=0;entryDy=0;exitX=1;exitY=0.5;exitDx=0;exitDy=0;rounded=0;endFill=1;strokeColor=#004AA0;" parent="syzZmw7OrBITDXNh8qp6-1" source="syzZmw7OrBITDXNh8qp6-5" target="syzZmw7OrBITDXNh8qp6-7" edge="1">
                    <mxGeometry width="50" height="50" relative="1" as="geometry">
                        <mxPoint x="450" y="150" as="sourcePoint"/>
                        <mxPoint x="530" y="150" as="targetPoint"/>
                    </mxGeometry>
                </mxCell>
                <mxCell id="syzZmw7OrBITDXNh8qp6-13" value="" style="endArrow=blockThin;html=1;entryX=0;entryY=0.5;entryDx=0;entryDy=0;exitX=1;exitY=0.5;exitDx=0;exitDy=0;rounded=0;endFill=1;strokeColor=#004AA0;" parent="syzZmw7OrBITDXNh8qp6-1" source="syzZmw7OrBITDXNh8qp6-5" target="syzZmw7OrBITDXNh8qp6-6" edge="1">
                    <mxGeometry width="50" height="50" relative="1" as="geometry">
                        <mxPoint x="450" y="230" as="sourcePoint"/>
                        <mxPoint x="530" y="230" as="targetPoint"/>
                    </mxGeometry>
                </mxCell>
                <mxCell id="syzZmw7OrBITDXNh8qp6-14" value="" style="endArrow=blockThin;html=1;entryX=0;entryY=0.5;entryDx=0;entryDy=0;exitX=1;exitY=0.5;exitDx=0;exitDy=0;rounded=0;endFill=1;strokeColor=#004AA0;" parent="syzZmw7OrBITDXNh8qp6-1" source="syzZmw7OrBITDXNh8qp6-4" target="syzZmw7OrBITDXNh8qp6-7" edge="1">
                    <mxGeometry width="50" height="50" relative="1" as="geometry">
                        <mxPoint x="450" y="230" as="sourcePoint"/>
                        <mxPoint x="530" y="150" as="targetPoint"/>
                    </mxGeometry>
                </mxCell>
            </root>
        </mxGraphModel>
    </diagram>
    <diagram id="VIH7O2_xU5Ny8q3sxcRD" name="hasura1">
        <mxGraphModel dx="701" dy="527" grid="1" gridSize="10" guides="1" tooltips="1" connect="1" arrows="1" fold="1" page="1" pageScale="1" pageWidth="827" pageHeight="1169" math="0" shadow="0">
            <root>
                <mxCell id="la7oT1S5hTj8Biv45WzN-0"/>
                <mxCell id="la7oT1S5hTj8Biv45WzN-1" parent="la7oT1S5hTj8Biv45WzN-0"/>
                <mxCell id="la7oT1S5hTj8Biv45WzN-2" value="&lt;pre&gt;api.website.cute&lt;/pre&gt;" style="rounded=0;whiteSpace=wrap;html=1;strokeWidth=1;fillColor=none;align=center;verticalAlign=top;strokeColor=#004aa0;fontColor=#004AA0;" vertex="1" parent="la7oT1S5hTj8Biv45WzN-1">
                    <mxGeometry x="300" y="70" width="160" height="200" as="geometry"/>
                </mxCell>
                <mxCell id="la7oT1S5hTj8Biv45WzN-3" value="&lt;pre&gt;auth.website.cute&lt;/pre&gt;" style="rounded=0;whiteSpace=wrap;html=1;strokeWidth=1;fillColor=none;align=center;verticalAlign=top;strokeColor=#004aa0;fontColor=#004AA0;glass=0;sketch=0;" vertex="1" parent="la7oT1S5hTj8Biv45WzN-1">
                    <mxGeometry x="500" y="70" width="160" height="200" as="geometry"/>
                </mxCell>
                <mxCell id="la7oT1S5hTj8Biv45WzN-4" value="Hasura" style="rounded=0;whiteSpace=wrap;html=1;strokeWidth=2;strokeColor=#004aa0;fontColor=#004AA0;fontFamily=Gill Sans;" vertex="1" parent="la7oT1S5hTj8Biv45WzN-1">
                    <mxGeometry x="320" y="120" width="120" height="40" as="geometry"/>
                </mxCell>
                <mxCell id="la7oT1S5hTj8Biv45WzN-6" value="Authentication server" style="rounded=0;whiteSpace=wrap;html=1;strokeWidth=2;strokeColor=#004AA0;fontColor=#004AA0;fontFamily=Gill Sans;" vertex="1" parent="la7oT1S5hTj8Biv45WzN-1">
                    <mxGeometry x="520" y="120" width="120" height="40" as="geometry"/>
                </mxCell>
                <mxCell id="la7oT1S5hTj8Biv45WzN-9" value="" style="endArrow=blockThin;html=1;entryX=0;entryY=0.5;entryDx=0;entryDy=0;rounded=0;endFill=1;strokeColor=#004AA0;exitX=1;exitY=0.5;exitDx=0;exitDy=0;" edge="1" parent="la7oT1S5hTj8Biv45WzN-1" source="la7oT1S5hTj8Biv45WzN-15" target="la7oT1S5hTj8Biv45WzN-4">
                    <mxGeometry width="50" height="50" relative="1" as="geometry">
                        <mxPoint x="234.51" y="166.7689537750988" as="sourcePoint"/>
                        <mxPoint x="180" y="270" as="targetPoint"/>
                    </mxGeometry>
                </mxCell>
                <mxCell id="la7oT1S5hTj8Biv45WzN-11" value="" style="endArrow=blockThin;html=1;entryX=0;entryY=0.5;entryDx=0;entryDy=0;rounded=0;endFill=1;strokeColor=#004AA0;" edge="1" parent="la7oT1S5hTj8Biv45WzN-1" source="la7oT1S5hTj8Biv45WzN-4" target="la7oT1S5hTj8Biv45WzN-6">
                    <mxGeometry width="50" height="50" relative="1" as="geometry">
                        <mxPoint x="174.51" y="198.5473716149587" as="sourcePoint"/>
                        <mxPoint x="330" y="230" as="targetPoint"/>
                    </mxGeometry>
                </mxCell>
                <mxCell id="la7oT1S5hTj8Biv45WzN-15" value="Client application" style="rounded=0;whiteSpace=wrap;html=1;strokeWidth=2;strokeColor=#004aa0;fontColor=#004AA0;fontFamily=Gill Sans;" vertex="1" parent="la7oT1S5hTj8Biv45WzN-1">
                    <mxGeometry x="120" y="120" width="120" height="40" as="geometry"/>
                </mxCell>
                <mxCell id="UA6qKuBJCHB0K8qu8ZeL-0" value="" style="shape=cylinder3;whiteSpace=wrap;html=1;boundedLbl=1;backgroundOutline=1;size=15;strokeColor=#004AA0;strokeWidth=2;" vertex="1" parent="la7oT1S5hTj8Biv45WzN-1">
                    <mxGeometry x="350" y="180" width="60" height="80" as="geometry"/>
                </mxCell>
                <mxCell id="UA6qKuBJCHB0K8qu8ZeL-1" value="" style="endArrow=blockThin;html=1;entryX=0.5;entryY=0;entryDx=0;entryDy=0;rounded=0;endFill=1;strokeColor=#004AA0;entryPerimeter=0;exitX=0.5;exitY=1;exitDx=0;exitDy=0;" edge="1" parent="la7oT1S5hTj8Biv45WzN-1" source="la7oT1S5hTj8Biv45WzN-4" target="UA6qKuBJCHB0K8qu8ZeL-0">
                    <mxGeometry width="50" height="50" relative="1" as="geometry">
                        <mxPoint x="450" y="150" as="sourcePoint"/>
                        <mxPoint x="530" y="150" as="targetPoint"/>
                    </mxGeometry>
                </mxCell>
            </root>
        </mxGraphModel>
    </diagram>
    <diagram id="Bg3CA54Bpc22vC7m98Ek" name="hasura2">
        <mxGraphModel dx="701" dy="527" grid="1" gridSize="10" guides="1" tooltips="1" connect="1" arrows="1" fold="1" page="1" pageScale="1" pageWidth="827" pageHeight="1169" math="0" shadow="0">
            <root>
                <mxCell id="btsu35YO0N-t-xml7hfH-0"/>
                <mxCell id="btsu35YO0N-t-xml7hfH-1" parent="btsu35YO0N-t-xml7hfH-0"/>
                <mxCell id="-CSoxAMUtpbUqrfiGJrA-0" value="&lt;pre&gt;pub-api.website.cute&lt;br&gt;priv-api.website.cute&lt;/pre&gt;" style="rounded=0;whiteSpace=wrap;html=1;strokeWidth=1;fillColor=none;align=center;verticalAlign=top;strokeColor=#004aa0;fontColor=#004AA0;" vertex="1" parent="btsu35YO0N-t-xml7hfH-1">
                    <mxGeometry x="300" y="50" width="160" height="220" as="geometry"/>
                </mxCell>
                <mxCell id="-CSoxAMUtpbUqrfiGJrA-1" value="&lt;pre&gt;auth.website.cute&lt;/pre&gt;" style="rounded=0;whiteSpace=wrap;html=1;strokeWidth=1;fillColor=none;align=center;verticalAlign=top;strokeColor=#004aa0;fontColor=#004AA0;glass=0;sketch=0;" vertex="1" parent="btsu35YO0N-t-xml7hfH-1">
                    <mxGeometry x="500" y="70" width="160" height="200" as="geometry"/>
                </mxCell>
                <mxCell id="-CSoxAMUtpbUqrfiGJrA-2" value="Hasura" style="rounded=0;whiteSpace=wrap;html=1;strokeWidth=2;strokeColor=#004aa0;fontColor=#004AA0;fontFamily=Gill Sans;" vertex="1" parent="btsu35YO0N-t-xml7hfH-1">
                    <mxGeometry x="320" y="120" width="120" height="40" as="geometry"/>
                </mxCell>
                <mxCell id="-CSoxAMUtpbUqrfiGJrA-3" value="Authentication server" style="rounded=0;whiteSpace=wrap;html=1;strokeWidth=2;strokeColor=#004AA0;fontColor=#004AA0;fontFamily=Gill Sans;" vertex="1" parent="btsu35YO0N-t-xml7hfH-1">
                    <mxGeometry x="520" y="120" width="120" height="40" as="geometry"/>
                </mxCell>
                <mxCell id="-CSoxAMUtpbUqrfiGJrA-4" value="" style="endArrow=blockThin;html=1;entryX=0;entryY=0.5;entryDx=0;entryDy=0;rounded=0;endFill=1;strokeColor=#004AA0;exitX=1;exitY=0.5;exitDx=0;exitDy=0;" edge="1" parent="btsu35YO0N-t-xml7hfH-1" source="-CSoxAMUtpbUqrfiGJrA-6" target="-CSoxAMUtpbUqrfiGJrA-2">
                    <mxGeometry width="50" height="50" relative="1" as="geometry">
                        <mxPoint x="234.51" y="166.7689537750988" as="sourcePoint"/>
                        <mxPoint x="180" y="270" as="targetPoint"/>
                    </mxGeometry>
                </mxCell>
                <mxCell id="-CSoxAMUtpbUqrfiGJrA-5" value="" style="endArrow=blockThin;html=1;entryX=0;entryY=0.5;entryDx=0;entryDy=0;rounded=0;endFill=1;strokeColor=#004AA0;" edge="1" parent="btsu35YO0N-t-xml7hfH-1" source="-CSoxAMUtpbUqrfiGJrA-2" target="-CSoxAMUtpbUqrfiGJrA-3">
                    <mxGeometry width="50" height="50" relative="1" as="geometry">
                        <mxPoint x="174.51" y="198.5473716149587" as="sourcePoint"/>
                        <mxPoint x="330" y="230" as="targetPoint"/>
                    </mxGeometry>
                </mxCell>
                <mxCell id="-CSoxAMUtpbUqrfiGJrA-6" value="Client application" style="rounded=0;whiteSpace=wrap;html=1;strokeWidth=2;strokeColor=#004aa0;fontColor=#004AA0;fontFamily=Gill Sans;" vertex="1" parent="btsu35YO0N-t-xml7hfH-1">
                    <mxGeometry x="120" y="120" width="120" height="40" as="geometry"/>
                </mxCell>
                <mxCell id="-CSoxAMUtpbUqrfiGJrA-7" value="" style="shape=cylinder3;whiteSpace=wrap;html=1;boundedLbl=1;backgroundOutline=1;size=15;strokeColor=#004AA0;strokeWidth=2;" vertex="1" parent="btsu35YO0N-t-xml7hfH-1">
                    <mxGeometry x="350" y="180" width="60" height="80" as="geometry"/>
                </mxCell>
                <mxCell id="-CSoxAMUtpbUqrfiGJrA-8" value="" style="endArrow=blockThin;html=1;entryX=0.5;entryY=0;entryDx=0;entryDy=0;rounded=0;endFill=1;strokeColor=#004AA0;entryPerimeter=0;exitX=0.5;exitY=1;exitDx=0;exitDy=0;" edge="1" parent="btsu35YO0N-t-xml7hfH-1" source="-CSoxAMUtpbUqrfiGJrA-2" target="-CSoxAMUtpbUqrfiGJrA-7">
                    <mxGeometry width="50" height="50" relative="1" as="geometry">
                        <mxPoint x="450" y="150" as="sourcePoint"/>
                        <mxPoint x="530" y="150" as="targetPoint"/>
                    </mxGeometry>
                </mxCell>
            </root>
        </mxGraphModel>
    </diagram>
</mxfile>